<svg xmlns="http://www.w3.org/2000/svg" width="26.69" height="26.69" viewBox="0 0 26.69 26.69">
  <g id="_2317984_cable_cord_data_datacable_plug_icon" data-name="2317984_cable_cord_data_datacable_plug_icon" transform="translate(-2 -2)">
    <g id="Group_47" data-name="Group 47" transform="translate(17.569 2)">
      <g id="Group_44" data-name="Group 44" transform="translate(1.668)">
        <g id="Group_39" data-name="Group 39">
          <g id="Group_38" data-name="Group 38">
            <path id="Path_89" data-name="Path 89" d="M40.785,6.448H33V2h7.785ZM34.112,5.336h5.56V3.112h-5.56Z" transform="translate(-33 -2)" fill="#fff"/>
          </g>
        </g>
        <g id="Group_41" data-name="Group 41" transform="translate(5.004 1.946)">
          <g id="Group_40" data-name="Group 40">
            <rect id="Rectangle_298" data-name="Rectangle 298" width="1.112" height="1.946" fill="#fff"/>
          </g>
        </g>
        <g id="Group_43" data-name="Group 43" transform="translate(1.668 1.946)">
          <g id="Group_42" data-name="Group 42">
            <rect id="Rectangle_299" data-name="Rectangle 299" width="1.112" height="1.946" fill="#fff"/>
          </g>
        </g>
      </g>
      <g id="Group_46" data-name="Group 46" transform="translate(0 3.336)">
        <g id="Group_45" data-name="Group 45">
          <path id="Path_90" data-name="Path 90" d="M39.453,15.229H31.668A1.67,1.67,0,0,1,30,13.56V8H41.121v5.56A1.67,1.67,0,0,1,39.453,15.229ZM31.112,9.112V13.56a.557.557,0,0,0,.556.556h7.785a.557.557,0,0,0,.556-.556V9.112Z" transform="translate(-30 -8)" fill="#fff"/>
        </g>
      </g>
    </g>
    <g id="Group_53" data-name="Group 53" transform="translate(2 13.399)">
      <g id="Group_50" data-name="Group 50" transform="translate(0.927 3.598)">
        <g id="Group_49" data-name="Group 49">
          <g id="Group_48" data-name="Group 48">
            <path id="Path_91" data-name="Path 91" d="M8.486,32.045H3.667V28.971H8.486ZM4.779,30.933H7.374v-.85H4.779Z" transform="translate(-3.667 -28.971)" fill="#fff"/>
          </g>
        </g>
      </g>
      <g id="Group_52" data-name="Group 52">
        <g id="Group_51" data-name="Group 51">
          <path id="Path_92" data-name="Path 92" d="M8.673,27.21H2V24.168A1.67,1.67,0,0,1,3.668,22.5H7a1.67,1.67,0,0,1,1.668,1.668ZM3.112,26.1H7.56v-1.93A.557.557,0,0,0,7,23.612H3.668a.557.557,0,0,0-.556.556Z" transform="translate(-2 -22.5)" fill="#fff"/>
        </g>
      </g>
    </g>
    <g id="Group_55" data-name="Group 55" transform="translate(4.78 9.229)">
      <g id="Group_54" data-name="Group 54">
        <path id="Path_93" data-name="Path 93" d="M20.345,34.462a5.567,5.567,0,0,1-5.56-5.56V19.448a3.336,3.336,0,0,0-6.673,0v.278H7v-.278a4.448,4.448,0,0,1,8.9,0V28.9a4.448,4.448,0,1,0,8.9,0V17.78h1.112V28.9A5.567,5.567,0,0,1,20.345,34.462Z" transform="translate(-7 -15)" fill="#fff"/>
      </g>
    </g>
  </g>
</svg>
