<svg xmlns="http://www.w3.org/2000/svg" width="22.142" height="26.36" viewBox="0 0 22.142 26.36">
  <g id="Mouse" transform="translate(-11 -3)">
    <path id="Path_94" data-name="Path 94" d="M22.071,29.36A11.071,11.071,0,0,1,11,18.289V7.613A4.623,4.623,0,0,1,15.613,3H28.529a4.623,4.623,0,0,1,4.613,4.613V18.289A11.071,11.071,0,0,1,22.071,29.36ZM15.613,4.054a3.564,3.564,0,0,0-3.559,3.559V18.289a10.017,10.017,0,1,0,20.033,0V7.613a3.564,3.564,0,0,0-3.559-3.559Z" transform="translate(0)" fill="#fff"/>
    <path id="Path_95" data-name="Path 95" d="M31.054,18.544A1.054,1.054,0,0,1,30,17.489V9.054a1.054,1.054,0,0,1,2.109,0v8.435A1.054,1.054,0,0,1,31.054,18.544Z" transform="translate(-8.983 -2.364)" fill="#fff"/>
  </g>
</svg>
