<svg xmlns="http://www.w3.org/2000/svg" width="31.304" height="25.108" viewBox="0 0 31.304 25.108">
  <g id="Layer_6" data-name="Layer 6" transform="translate(-0.89 -7.33)">
    <path id="Path_80" data-name="Path 80" d="M1.4,22.851l30.279-.094v1.725a3.47,3.47,0,0,1-3.47,3.47H4.86a3.47,3.47,0,0,1-3.47-3.47V11.3A3.47,3.47,0,0,1,4.86,7.83H28.224a3.47,3.47,0,0,1,3.47,3.47v8.874" transform="translate(0)" fill="none" stroke="#fff" stroke-linecap="round" stroke-linejoin="round" stroke-width="1"/>
    <path id="Path_81" data-name="Path 81" d="M25.1,48.4A4.327,4.327,0,0,1,22,52.282" transform="translate(-10.393 -20.458)" fill="none" stroke="#fff" stroke-linecap="round" stroke-linejoin="round" stroke-width="1"/>
    <path id="Path_82" data-name="Path 82" d="M35.93,48.4a4.335,4.335,0,0,0,3.123,3.882" transform="translate(-17.417 -20.458)" fill="none" stroke="#fff" stroke-linecap="round" stroke-linejoin="round" stroke-width="1"/>
    <line id="Line_3" data-name="Line 3" x2="13.801" transform="translate(9.644 31.823)" fill="none" stroke="#fff" stroke-linecap="round" stroke-linejoin="round" stroke-width="1"/>
    <line id="Line_4" data-name="Line 4" x2="0.932" transform="translate(16.079 25.265)" fill="none" stroke="#fff" stroke-linecap="round" stroke-linejoin="round" stroke-width="1"/>
  </g>
</svg>
