<svg xmlns="http://www.w3.org/2000/svg" width="62" height="36" viewBox="0 0 62 36">
  <g id="Group_96" data-name="Group 96" transform="translate(-1297 -83)">
    <circle id="Ellipse_103" data-name="Ellipse 103" cx="18" cy="18" r="18" transform="translate(1297 83)" fill="#1A2A3B"/>
    <text id="En" transform="translate(1341 105)" fill="#fff" font-size="16" font-family="SegoeUI, Segoe UI"><tspan x="0" y="0">En</tspan></text>
    <path id="_7787531_earth_globe_world_flag_country_icon" data-name="7787531_earth_globe_world_flag_country_icon" d="M24.5,15a9.492,9.492,0,1,0,6.72,2.78A9.5,9.5,0,0,0,24.5,15Zm0,2.235a7.336,7.336,0,0,1,3.632.95c-.168.224-.335.447-.447.615-.335.447-.5.726-.726.838-.224.168-.391.168-1.006.224a2.149,2.149,0,0,0-1.062.279,2.9,2.9,0,0,0-1.229,1.229c-.168.335-.224.726-.391,1.118a2.193,2.193,0,0,1-.447.782c-.335.335-.335-.279-.391-.559a6.65,6.65,0,0,0-.95-2.012,1.928,1.928,0,0,0-.447-.5,1.777,1.777,0,0,0-1.509-.056,5.935,5.935,0,0,0-1.062.224A7.481,7.481,0,0,1,24.5,17.235Zm0,14.529A7.25,7.25,0,0,1,17.235,24.5a6.571,6.571,0,0,1,.168-1.509l2.571-.615a4.267,4.267,0,0,1,.5,1.565,1.71,1.71,0,0,0,.168.838,1.74,1.74,0,0,0,.782.894,2.211,2.211,0,0,0,1.453.279,1.938,1.938,0,0,0,1.062-.559,8.952,8.952,0,0,0,1.229-1.453,2.94,2.94,0,0,0,.447-1.285.646.646,0,0,1,.671-.671,3.129,3.129,0,0,0,1.956-.615,5.364,5.364,0,0,0,1.229-1.341,3.912,3.912,0,0,1,.447-.559,7.283,7.283,0,0,1,1.9,4.918,7.153,7.153,0,0,1-.5,2.682,8.87,8.87,0,0,1-1.118-.391,6.549,6.549,0,0,0-1.788-.5,17.808,17.808,0,0,0-2.962.335c-1.062.112-1.006,1.4-.782,2.179a4.775,4.775,0,0,0,.726,1.676A4.3,4.3,0,0,0,26.4,31.373,4.456,4.456,0,0,1,24.5,31.765Zm4.638-1.732a1.345,1.345,0,0,1-1.118-.168,2.252,2.252,0,0,1-.782-.726,3.318,3.318,0,0,1-.224-.447l1.285-.168c.279.112.5.168.782.279s.782.168,1.006.391C30.2,29.194,29.25,29.976,29.138,30.032Z" transform="translate(1291 77)" fill="#fff"/>
  </g>
</svg>
