<svg xmlns="http://www.w3.org/2000/svg" width="61" height="33" viewBox="0 0 61 33">
  <g id="Group_20" data-name="Group 20" transform="translate(-1450 -13)">
    <circle id="Ellipse_2" data-name="Ellipse 2" cx="16.5" cy="16.5" r="16.5" transform="translate(1450 13)" fill="#fff"/>
    <text id="Ar" transform="translate(1511 37)" fill="#fff" font-size="20" font-family="SegoeUI-Light, Segoe UI" font-weight="300"><tspan x="-19.18" y="0">Ar</tspan></text>
    <g id="world_earth_global" transform="translate(1403.7 -34.3)">
      <path id="Path_8" data-name="Path 8" d="M391.15,152.166c.291-.064-.033-.678-.291-.742-.194-.033-.548.291-.518.485S390.86,152.263,391.15,152.166Z" transform="translate(-327.801 -95.15)" fill="#313131"/>
      <path id="Path_9" data-name="Path 9" d="M62.8,53.3A10.5,10.5,0,1,0,73.3,63.8,10.521,10.521,0,0,0,62.8,53.3Zm8.563,10.5a8.566,8.566,0,0,1-5.074,7.817,13.508,13.508,0,0,1-2.069.1,2.413,2.413,0,0,0-1.939.645c-.324-.033-.678-.064-1-.13-.064-.033-.13-.064-.194-.1a1.906,1.906,0,0,0-1.454-.388A8.588,8.588,0,0,1,54.266,63.8a8.339,8.339,0,0,1,.742-3.489c.518,1.9-.742,2-.742,3.489a8.954,8.954,0,0,0,1.614,4.07c1.1,1.648,2.52,3.068,3.038,2.941.936-.291-2.132-.742-.227-4.231,1.905-3.522-2.487-1.2-3.135-6.009-.227-1.744.969-1.227,1.842-2.52.645-1,1.939-1.227,1.778-1.938a7.239,7.239,0,0,1,1.648-.581c-.615.548-1.163,1,.1.742,1.39-.291,2.1-.548,2.2-.969a8.326,8.326,0,0,1,2.2.354c-.518-.064-1.487-.064-1.518.615-.064.936-.194,1.293-.645,1.39s-.548.227-.548.421c.033.581.582.712,1.487,0s1.163.227,1.875.388.615-.712,1.2-.485,1.293,1.487-.518,1.357c-1.808-.1-2.714-.615-4.038.064-1.875.936-1.551,3.716.421,3.683,1.614,0,2.069.064,2.584,1.778s-.354,2.326.551,3.649c.906,1.39,3.038-2.486,2.971-3.78s1.681-1.9.712-3.425c-.969-1.487.194-1.487,1.033-.615A10.774,10.774,0,0,1,71.361,63.8Z" transform="translate(0 0)" fill="#313131"/>
      <path id="Path_10" data-name="Path 10" d="M600.1,458.054c.451.16,1.614-2.262,1.1-2.035C600.649,456.245,599.743,457.926,600.1,458.054Z" transform="translate(-531.129 -390.507)" fill="#313131"/>
    </g>
  </g>
</svg>
