<svg xmlns="http://www.w3.org/2000/svg" width="23" height="17" viewBox="0 0 23 17">
  <path id="email" d="M18.333,3H3.667A3.623,3.623,0,0,0,0,6.556v8.889A3.623,3.623,0,0,0,3.667,19H18.333A3.623,3.623,0,0,0,22,15.444V6.556A3.623,3.623,0,0,0,18.333,3ZM19.8,8.156l-7.242,4.711A3.161,3.161,0,0,1,11,13.311a3.161,3.161,0,0,1-1.558-.444L2.2,8.156a.921.921,0,0,1-.183-1.244A.99.99,0,0,1,3.3,6.733l7.242,4.711a1.02,1.02,0,0,0,1.008,0l7.242-4.711A.918.918,0,0,1,20.075,7,.95.95,0,0,1,19.8,8.156Z" transform="translate(0.5 -2.5)" fill="none" stroke="#fff" stroke-width="1"/>
</svg>
