<svg xmlns="http://www.w3.org/2000/svg" width="15.833" height="17.031" viewBox="0 0 15.833 17.031">
  <path id="_8665646_phone_communication_icon" data-name="8665646_phone_communication_icon" d="M14.8,12.1l-.673,3.152a.918.918,0,0,1-.882.757C5.94,16.006,0,9.589,0,1.7A.959.959,0,0,1,.7.746L3.619.019A.893.893,0,0,1,4.655.586L6,3.979a1.031,1.031,0,0,1-.26,1.14L4.183,6.471A10.564,10.564,0,0,0,8.8,11.459l1.276-1.683A.858.858,0,0,1,11.132,9.5l3.141,1.455A1.094,1.094,0,0,1,14.8,12.1Z" transform="translate(0.5 0.524)" fill="none" stroke="#fff" stroke-width="1"/>
</svg>
