<svg xmlns="http://www.w3.org/2000/svg" width="10.397" height="18.375" viewBox="0 0 10.397 18.375">
  <path id="Path_562" data-name="Path 562" d="M18.229,14.065c-2.317-.6-3.063-1.22-3.063-2.19,0-1.113,1.026-1.894,2.756-1.894,1.817,0,2.491.868,2.552,2.144h2.256a4.064,4.064,0,0,0-3.277-3.889V6H16.392V8.2c-1.98.434-3.573,1.71-3.573,3.685,0,2.358,1.955,3.532,4.8,4.216,2.557.613,3.063,1.506,3.063,2.465,0,.7-.5,1.822-2.756,1.822-2.1,0-2.935-.944-3.042-2.144H12.63c.128,2.236,1.8,3.486,3.762,3.91v2.215h3.063V22.18c1.986-.383,3.573-1.531,3.573-3.629,0-2.889-2.481-3.879-4.8-4.487Z" transform="translate(-12.63 -6)" fill="#727272"/>
</svg>
