<svg xmlns="http://www.w3.org/2000/svg" width="16" height="22" viewBox="0 0 16 22">
  <path id="_6611415_and_location_maps_navigation_pin_icon" data-name="6611415_and_location_maps_navigation_pin_icon" d="M13.5,3C9.375,3,6,6.635,6,11.077c0,6.785,6.75,12.519,7.05,12.762A1.015,1.015,0,0,0,13.5,24a1.015,1.015,0,0,0,.45-.162C14.25,23.6,21,17.862,21,11.077,21,6.635,17.625,3,13.5,3Zm0,11.308a3.131,3.131,0,0,1-3-3.231,3.131,3.131,0,0,1,3-3.231,3.131,3.131,0,0,1,3,3.231A3.131,3.131,0,0,1,13.5,14.308Z" transform="translate(-5.5 -2.5)" fill="none" stroke="#fff" stroke-width="1"/>
</svg>
