<svg xmlns="http://www.w3.org/2000/svg" width="17.334" height="17.334" viewBox="0 0 17.334 17.334">
  <g id="_3556093_calendar_date_day_ui_icon" data-name="3556093_calendar_date_day_ui_icon" transform="translate(-3 -3)">
    <path id="Path_565" data-name="Path 565" d="M18.327,4.971C18.262,3.968,17.9,3,17.2,3s-1.055.946-1.125,1.936H14.637C14.566,3.946,14.208,3,13.511,3s-1.055.946-1.125,1.936H10.949C10.878,3.946,10.519,3,9.823,3S8.768,3.946,8.7,4.936H7.26C7.19,3.946,6.831,3,6.135,3s-1.063.968-1.128,1.971A2.409,2.409,0,0,0,3,7.333v10.6a2.4,2.4,0,0,0,2.4,2.4H17.937a2.4,2.4,0,0,0,2.4-2.4V7.333A2.409,2.409,0,0,0,18.327,4.971ZM17.2,3.743a2.29,2.29,0,0,1,.4,1.562,2.29,2.29,0,0,1-.4,1.562,2.29,2.29,0,0,1-.4-1.562A2.29,2.29,0,0,1,17.2,3.743Zm-3.688,0a2.29,2.29,0,0,1,.4,1.562,2.29,2.29,0,0,1-.4,1.562,2.29,2.29,0,0,1-.4-1.562A2.29,2.29,0,0,1,13.511,3.743Zm-3.688,0a2.29,2.29,0,0,1,.4,1.562,2.29,2.29,0,0,1-.4,1.562,2.29,2.29,0,0,1-.4-1.562A2.29,2.29,0,0,1,9.823,3.743Zm-3.688,0a2.29,2.29,0,0,1,.4,1.562,2.29,2.29,0,0,1-.4,1.562,2.29,2.29,0,0,1-.4-1.562A2.29,2.29,0,0,1,6.135,3.743ZM5.012,5.721c.079.973.437,1.89,1.123,1.89S7.19,6.664,7.26,5.674H8.7c.071.99.429,1.936,1.126,1.936s1.055-.946,1.125-1.936h1.437c.071.99.429,1.936,1.126,1.936s1.055-.946,1.125-1.936h1.437c.071.99.429,1.936,1.126,1.936s1.044-.916,1.123-1.89A1.669,1.669,0,0,1,19.6,7.333v1.8H3.738v-1.8A1.669,1.669,0,0,1,5.012,5.721ZM17.937,19.6H5.4a1.662,1.662,0,0,1-1.66-1.66V9.869H19.6v8.068A1.662,1.662,0,0,1,17.937,19.6Z" fill="#727272"/>
    <path id="Path_566" data-name="Path 566" d="M39.154,43.854H33.77a.369.369,0,0,0-.369.369V45.4a.369.369,0,0,0,.369.369h3.239L33.86,51.711a.369.369,0,0,0,.326.542H35.7a.369.369,0,0,0,.327-.2l3.458-6.643a.37.37,0,0,0,.042-.17V44.223A.369.369,0,0,0,39.154,43.854Zm-.369,1.3-3.313,6.364H34.8l3.149-5.937a.369.369,0,0,0-.326-.542H34.138v-.444h4.647v.559Z" transform="translate(-24.795 -33.32)" fill="#727272"/>
  </g>
</svg>
