<svg xmlns="http://www.w3.org/2000/svg" width="155.378" height="45.464" viewBox="0 0 155.378 45.464">
  <g id="logo" transform="translate(-66.416 -83.7)">
    <path id="mei10_Converted_" data-name="mei10 [Converted]" d="M8.678,9.573V8.261a8.261,8.261,0,1,1,16.522,0V9.573H28a4.367,4.367,0,0,1,2.9,1.1A4.168,4.168,0,0,1,32.3,13.424l2.47,27.245a4.565,4.565,0,0,1-.177,1.795,4.334,4.334,0,0,1-4.114,3H11.521A5.14,5.14,0,0,1,6.866,42.6c-1.011-1.992-.334-4.162.893-6.221a5.314,5.314,0,0,1-5.1.011A5.234,5.234,0,0,1-.037,31.274L1.578,13.425a4.171,4.171,0,0,1,1.388-2.749,4.368,4.368,0,0,1,2.9-1.1Zm14.315,0V8.261a6.054,6.054,0,1,0-12.108,0V9.573Zm-12.187,13.2L21.916,19.8a2.039,2.039,0,0,1,1.912.457c.03.024.058.05.085.077a2.049,2.049,0,0,1,.535,2L21.471,33.437a2.062,2.062,0,0,1-3.812.453l-2.573-4.733-4.73-2.573a2.062,2.062,0,0,1,.453-3.812Zm11.451-.787L11.7,24.814l4.721,2.567a1.1,1.1,0,0,1,.443.445l2.564,4.716ZM11.521,43.257H30.475a1.988,1.988,0,0,0,1.581-.707,2.037,2.037,0,0,0,.432-.748,2.364,2.364,0,0,0,.089-.932l-2.47-27.246a1.979,1.979,0,0,0-.666-1.3A2.16,2.16,0,0,0,28,11.781H25.2v2.092a1.9,1.9,0,1,1-2.207,0V11.781H10.884v2.092a1.9,1.9,0,1,1-2.207,0V11.781h-2.8a2.16,2.16,0,0,0-1.441.541,1.979,1.979,0,0,0-.664,1.3L2.153,31.472a3.035,3.035,0,0,0,1.582,3c2.129,1.192,4.831-1.036,7.063-2.877.551-.455,1.079-.889,1.571-1.256a1.1,1.1,0,0,1,1.543,1.533c-.39.534-.885,1.14-1.416,1.792-2.062,2.525-4.745,5.816-3.664,7.948a2.922,2.922,0,0,0,2.69,1.647Z" transform="translate(66.48 83.7)" fill="#5558e1"/>
    <text id="Skilled_Shop" data-name="Skilled Shop" transform="translate(107.794 107.737)" fill="#fff" font-size="21" font-family="SegoeUI, Segoe UI"><tspan x="0" y="0">Skilled Shop</tspan></text>
    <text id="Computer_Component_Store" data-name="Computer Component Store" transform="translate(107.794 120.943)" fill="#fff" font-size="7" font-family="SegoeUI, Segoe UI"><tspan x="0" y="0">Computer Component Store</tspan></text>
  </g>
</svg>
