<svg xmlns="http://www.w3.org/2000/svg" width="17.306" height="23.075" viewBox="0 0 17.306 23.075">
  <g id="Layer_1" transform="translate(-7 -1)">
    <path id="Path_581" data-name="Path 581" d="M8.923,19.982v3.132H7v.961H24.306v-.961H22.383V19.982A3.343,3.343,0,0,0,21.4,17.6l-5.064-5.064L21.4,7.473a3.344,3.344,0,0,0,.986-2.38V1.961h1.923V1H7v.961H8.923V5.093a3.343,3.343,0,0,0,.986,2.38l5.064,5.064L9.909,17.6A3.344,3.344,0,0,0,8.923,19.982ZM10.589,6.793a2.388,2.388,0,0,1-.7-1.7V1.961H21.422V5.093a2.389,2.389,0,0,1-.7,1.7l-5.064,5.064Zm5.064,6.424,5.064,5.065a2.388,2.388,0,0,1,.7,1.7v3.132H9.884V19.982a2.389,2.389,0,0,1,.7-1.7Z" fill="#fff"/>
  </g>
</svg>
