<svg xmlns="http://www.w3.org/2000/svg" width="22" height="23" viewBox="0 0 22 23">
  <g id="_5402359_basket_cart_ecommerce_shopping_buy_icon" data-name="5402359_basket_cart_ecommerce_shopping_buy_icon" transform="translate(-2.07 -2)">
    <path id="Path_562" data-name="Path 562" d="M24.042,7.775v.143l-1.616,5.94A3.318,3.318,0,0,1,19.193,16.3H10.726a3.313,3.313,0,0,1-3.321-3L6.686,5.2a1.1,1.1,0,0,0-1.107-1h-2.4a1.1,1.1,0,1,1,0-2.2h2.4A3.313,3.313,0,0,1,8.9,5v.3H21.839a2.22,2.22,0,0,1,1.672.738,2.191,2.191,0,0,1,.542,1.737Z" transform="translate(0 0)" fill="#fff"/>
    <circle id="Ellipse_136" data-name="Ellipse 136" cx="2.75" cy="2.75" r="2.75" transform="translate(7.061 19.5)" fill="#fff"/>
    <circle id="Ellipse_137" data-name="Ellipse 137" cx="2.75" cy="2.75" r="2.75" transform="translate(15.957 19.5)" fill="#fff"/>
  </g>
</svg>
