<svg xmlns="http://www.w3.org/2000/svg" width="20" height="20" viewBox="0 0 20 20">
  <g id="_1" data-name="1" transform="translate(-54.13 -53.782)">
    <path id="Path_563" data-name="Path 563" d="M59.347,305.673H54.876a.752.752,0,0,1-.746-.757v-6.158a.752.752,0,0,1,.746-.757h4.471a.752.752,0,0,1,.746.757v6.158A.752.752,0,0,1,59.347,305.673Zm-3.725-1.514H58.6v-4.644H55.623Z" transform="translate(0 -231.891)" fill="#fff"/>
    <path id="Path_564" data-name="Path 564" d="M200.417,255.452h-4.471a.752.752,0,0,1-.746-.757v-8.828a.752.752,0,0,1,.746-.757h4.471a.752.752,0,0,1,.746.757V254.7A.752.752,0,0,1,200.417,255.452Zm-3.725-1.514h2.979v-7.314h-2.979Z" transform="translate(-134.052 -181.671)" fill="#fff"/>
    <path id="Path_565" data-name="Path 565" d="M341.487,198.13h-4.471a.752.752,0,0,1-.746-.757V185.5a.752.752,0,0,1,.746-.757h4.471a.752.752,0,0,1,.746.757v11.875A.752.752,0,0,1,341.487,198.13Zm-3.724-1.514h2.978V186.254h-2.978Z" transform="translate(-268.103 -124.348)" fill="#fff"/>
    <path id="Path_566" data-name="Path 566" d="M317.176,58.836a.744.744,0,0,1-.636-.362.767.767,0,0,1-.028-.739l.839-1.671-1.646-.851a.763.763,0,0,1-.326-1.018.741.741,0,0,1,1-.331l2.311,1.195a.762.762,0,0,1,.326,1.018l-1.178,2.345A.745.745,0,0,1,317.176,58.836Z" transform="translate(-248.173 0)" fill="#fff"/>
    <path id="Path_567" data-name="Path 567" d="M84.6,84.986a.75.75,0,0,1-.737-.639.758.758,0,0,1,.507-.839l13.589-4.48a.744.744,0,0,1,.94.486.76.76,0,0,1-.479.954L84.829,84.948A.736.736,0,0,1,84.6,84.986Z" transform="translate(-28.242 -23.937)" fill="#fff"/>
  </g>
</svg>
