<svg xmlns="http://www.w3.org/2000/svg" width="21.211" height="24.349" viewBox="0 0 21.211 24.349">
  <g id="_02_unboxing" data-name="02 unboxing" transform="translate(-7.18 -3.52)">
    <path id="Path_568" data-name="Path 568" d="M28.209,24.064l-1.889-2.41a.439.439,0,0,0-.359-.162H14.88L13,18.859a.859.859,0,0,0-.7-.359H8.6a.855.855,0,0,0-.718,1.316L9.227,21.9,7.351,24.4a.855.855,0,0,0,.684,1.367h.65l-.009,9.829a.861.861,0,0,0,.855.855H25.555a.855.855,0,0,0,.855-.855v-10l1.231-.154a.855.855,0,0,0,.568-1.376ZM8.6,19.355h3.7l1.526,2.137H9.979ZM8.035,24.91l1.923-2.564H21.282L19.359,24.91ZM21.709,35.593H9.53l.009-9.829h9.82a.855.855,0,0,0,.684-.342L21.709,23.2Zm3.846,0H22.564V23.124l1.876,2.312a.851.851,0,0,0,.662.316.9.9,0,0,0,.107-.009l.346-.043ZM25.1,24.9l-2.068-2.551h2.743l1.761,2.248Z" transform="translate(0 -8.579)" fill="#fff"/>
    <path id="Path_569" data-name="Path 569" d="M30.881,6.652,28.317,3.661a.444.444,0,0,0-.65,0L25.1,6.652a.435.435,0,0,0-.064.457.427.427,0,0,0,.389.248H26.71v2.991a.427.427,0,0,0,.427.427h1.709a.427.427,0,0,0,.427-.427V7.357h1.282a.427.427,0,0,0,.389-.248.435.435,0,0,0-.064-.457ZM28.847,6.5a.427.427,0,0,0-.427.427V9.921h-.855V6.93a.427.427,0,0,0-.427-.427h-.782L27.992,4.6,29.629,6.5Z" transform="translate(-10.206)" fill="#fff"/>
  </g>
</svg>
