<svg xmlns="http://www.w3.org/2000/svg" width="13.863" height="22.833" viewBox="0 0 13.863 22.833">
  <path id="Path_570" data-name="Path 570" d="M20.1,16.021c-3.09-.748-4.083-1.516-4.083-2.721,0-1.383,1.368-2.353,3.675-2.353,2.423,0,3.321,1.078,3.4,2.664H26.1a5.156,5.156,0,0,0-4.369-4.833V6H17.646V8.74c-2.641.539-4.764,2.125-4.764,4.579,0,2.93,2.606,4.389,6.4,5.239,3.41.761,4.083,1.871,4.083,3.063,0,.869-.66,2.264-3.675,2.264-2.8,0-3.913-1.173-4.056-2.664h-3c.17,2.778,2.4,4.332,5.016,4.858v2.753h4.083V26.106c2.647-.476,4.764-1.9,4.764-4.51,0-3.59-3.307-4.82-6.4-5.575Z" transform="translate(-12.63 -6)" fill="#fff"/>
</svg>
