<svg xmlns="http://www.w3.org/2000/svg" width="26.36" height="24.05" viewBox="0 0 26.36 24.05">
  <g id="Layer_x0020_1" transform="translate(-10.97 -44.61)">
    <path id="Path_572" data-name="Path 572" d="M36.011,56.33a.66.66,0,0,1,1.319,0V68.005a.657.657,0,0,1-.66.655H11.629a.657.657,0,0,1-.659-.655V56.33a.66.66,0,0,1,1.319,0V67.35h2.944V60.985a.657.657,0,0,1,.659-.655h3.456a.657.657,0,0,1,.66.655V67.35h1.753V55.414a.657.657,0,0,1,.659-.655h3.457a.657.657,0,0,1,.659.655V67.35h1.754V45.265a.657.657,0,0,1,.66-.655h3.456a.657.657,0,0,1,.659.655V67.35h2.944V56.33Zm-19.05-8.685a.66.66,0,0,1,1.319,0v.33h1.34a.655.655,0,0,1,0,1.31H18.28v1.679h.349a2.149,2.149,0,1,1,0,4.3H18.28v.33a.66.66,0,0,1-1.319,0v-.33h-1.34a.655.655,0,0,1,0-1.31h1.34V52.274h-.349a2.149,2.149,0,1,1,0-4.3h.349Zm1.319,4.629v1.678h.349a.839.839,0,1,0,0-1.678H18.28Zm-1.319-1.31V49.285h-.349a.839.839,0,1,0,0,1.679ZM29.61,67.35h2.138V45.92H29.61Zm-6.529,0h2.138V56.069H23.081Zm-6.529,0h2.138V61.64H16.552Z" fill="#fff"/>
  </g>
</svg>
