<svg xmlns="http://www.w3.org/2000/svg" width="25" height="24" viewBox="0 0 25 24">
  <path id="XMLID_328_" d="M26.9,11.017a1.717,1.717,0,0,0-1.383-1.131L19,8.948,16.059,2.962a1.746,1.746,0,0,0-3.119,0L10.045,8.927l-6.568.96a1.718,1.718,0,0,0-1.383,1.131,1.669,1.669,0,0,0,.415,1.754l4.751,4.668L6.137,24.018A1.671,1.671,0,0,0,6.861,25.7a1.746,1.746,0,0,0,1.8.1l5.793-3.106L20.334,25.8a1.749,1.749,0,0,0,1.8-.1,1.669,1.669,0,0,0,.724-1.679L21.737,17.43l4.752-4.659A1.669,1.669,0,0,0,26.9,11.017Z" transform="translate(-1.999 -2)" fill="#fff"/>
</svg>
