<svg id="shopping_bag_1" xmlns="http://www.w3.org/2000/svg" width="25" height="25" viewBox="0 0 25 25">
  <g id="Group_77" data-name="Group 77" transform="translate(0)">
    <path id="Path_576" data-name="Path 576" d="M25,22.334,24.147,2.568A2.6,2.6,0,0,0,21.536,0H3.462A2.6,2.6,0,0,0,.852,2.568L0,22.338c0,.016,0,.034,0,.05A2.615,2.615,0,0,0,2.611,25H22.389A2.617,2.617,0,0,0,25,22.386C25,22.37,25,22.35,25,22.334Zm-2.61.445H2.611a.391.391,0,0,1-.393-.376l.85-19.767c0-.016,0-.025,0-.041a.378.378,0,0,1,.393-.374H21.536a.377.377,0,0,1,.394.373c0,.016,0,.028,0,.044l.851,19.768A.389.389,0,0,1,22.389,22.779Z" transform="translate(0)" fill="#fff"/>
    <path id="Path_577" data-name="Path 577" d="M468.483,256.6a1.116,1.116,0,0,0-1.116,1.112v3.359a2.576,2.576,0,0,1-5.152,0v-3.359a1.108,1.108,0,1,0-2.215,0v3.359a4.8,4.8,0,0,0,9.6,0v-3.359A1.116,1.116,0,0,0,468.483,256.6Z" transform="translate(-452.281 -252.286)" fill="#fff"/>
  </g>
</svg>
