<svg xmlns="http://www.w3.org/2000/svg" width="24.666" height="24.666" viewBox="0 0 24.666 24.666">
  <g id="_8703724_cencel_sign_decline_navigation_no_icon" data-name="8703724_cencel_sign_decline_navigation_no_icon" transform="translate(-6 -6)">
    <path id="Path_578" data-name="Path 578" d="M18.333,30.666A12.333,12.333,0,1,1,30.666,18.333,12.333,12.333,0,0,1,18.333,30.666Zm0-23.491A11.158,11.158,0,1,0,29.491,18.333,11.158,11.158,0,0,0,18.333,7.175Z" transform="translate(0 0)" fill="#fff"/>
    <path id="Path_579" data-name="Path 579" d="M38.41,39A.587.587,0,0,1,38,38.824L26.25,27.078a.587.587,0,0,1,.828-.828L38.824,38a.587.587,0,0,1-.414,1Z" transform="translate(-14.204 -14.204)" fill="#fff"/>
    <path id="Path_580" data-name="Path 580" d="M26.593,39a.587.587,0,0,1-.414-1L37.925,26.25a.587.587,0,0,1,.828.828L27.007,38.824a.587.587,0,0,1-.414.173Z" transform="translate(-14.133 -14.204)" fill="#fff"/>
  </g>
</svg>
